<?xml version="1.0" encoding="utf-8"?>
<!-- Generator: Adobe Illustrator 23.1.0, SVG Export Plug-In . SVG Version: 6.00 Build 0)  -->
<svg version="1.1" id="Layer_1" xmlns="http://www.w3.org/2000/svg" xmlns:xlink="http://www.w3.org/1999/xlink" x="0px" y="0px"
	 viewBox="0 0 2700 2699" style="enable-background:new 0 0 2700 2699;" xml:space="preserve">
<style type="text/css">
	.st0{fill:none;}
	.st1{fill:#F27029;}
	.st2{fill:#F69220;}
	.st3{fill:#F79920;}
	.st4{fill:#EE4237;}
	.st5{fill:#F26F28;}
	.st6{fill:#FBB216;}
	.st7{fill:#F9A11E;}
	.st8{fill:#F89B1F;}
	.st9{fill:#ED2037;}
	.st10{fill:#5AC8E8;}
	.st11{fill:#02A9B4;}
	.st12{fill:#F37526;}
	.st13{fill:#078BA9;}
	.st14{fill:#D93627;}
	.st15{fill:#00B5D2;}
	.st16{fill:#00A6AF;}
	.st17{fill:#00A7CA;}
	.st18{fill:#FFC114;}
	.st19{fill:#317888;}
	.st20{fill:#F89E1C;}
	.st21{fill:#10ABB6;}
	.st22{fill:#D51E43;}
	.st23{fill:#EC5A2E;}
	.st24{fill:#E81D3C;}
	.st25{fill:#ED1F44;}
	.st26{fill:#01899F;}
	.st27{fill:#F48220;}
	.st28{fill:#8E1832;}
	.st29{fill:#ED203A;}
	.st30{fill:#EE474A;}
	.st31{fill:#F48020;}
	.st32{fill:#EE4456;}
	.st33{fill:#ED1E4A;}
	.st34{fill:none;stroke:#D51E43;stroke-width:0;stroke-linecap:round;stroke-linejoin:round;}
	.st35{fill:none;stroke:#C42042;stroke-width:0;stroke-linecap:round;stroke-linejoin:round;}
	.st36{fill:#3AC4EB;}
	.st37{fill:#028DA3;}
</style>
<g>
	<g>
		<rect x="1274.35" y="1667.85" class="st0" width="89.04" height="89.04"/>
		<rect x="1274.35" y="1562.68" class="st0" width="89.04" height="89.04"/>
		<rect x="1379.65" y="1562.68" class="st0" width="89" height="89.04"/>
		<polygon class="st0" points="1468.65,1685.17 1468.65,1667.85 1379.65,1667.85 1379.65,1756.89 1413.57,1756.89 1468.65,1756.89 
					"/>
		<path class="st1" d="M1447.24,2014.93c19.6-37.11,40.59-70.28,62.74-100.11l-178.25,100.11H1447.24z"/>
		<path class="st2" d="M1824.57,1687.86l-186.48-160.45l38.04,231.67C1723.47,1728.95,1773.27,1706.08,1824.57,1687.86z"/>
		<path class="st3" d="M1468.65,1756.89h-55.08l-147.64,192.25l65.8,65.8l178.25-100.11c50.03-67.38,106.08-117.49,166.14-155.73
			l-38.04-231.67l-29.08-25.02l-140.36,182.77V1756.89z"/>
		<polygon class="st4" points="1536.34,1439.88 1309.75,1353.07 1138.53,1500.38 1580.73,1478.07 		"/>
		<path class="st5" d="M1314.1,2157.32c12.98,37.13,25,77.01,35.9,120.02c26.46-104.35,59.32-190.61,97.25-262.4h-115.51
			L1314.1,2157.32z"/>
		<path class="st6" d="M1413.57,1756.89h-33.92v-89.04h89v17.32L1609,1502.39l-28.28-24.33l-442.2,22.31L965.8,1648.98
			l300.13,300.15L1413.57,1756.89z M1379.65,1562.68h89v89.04h-89V1562.68z M1274.35,1562.68h89.04v89.04h-89.04V1562.68z
			 M1274.35,1667.85h89.04v89.04h-89.04V1667.85z"/>
		<path class="st7" d="M1331.73,2014.93l-65.8-65.8l-28.84,37.56c28.39,49.11,54.23,105.51,77,170.63L1331.73,2014.93z"/>
		<path class="st8" d="M965.8,1648.98l-58.97,50.73c125.54,50.13,240.67,132.04,330.26,286.98l28.84-37.56L965.8,1648.98z"/>
		<polygon class="st9" points="1372.6,1299 1309.75,1353.07 1536.34,1439.88 		"/>
	</g>
	<g>
		<path class="st0" d="M2159.91,1608.24c-57.46,11.83-115.61,22.4-173.27,34.99c3.76-11.04,7.15-22.3,10.28-33.72
			c6.86-25.08,11.96-51.16,15.48-78.03c13.51-103.12,1.1-219.15-47.02-346.05c-5.75-15.16-12.03-30.48-18.82-45.95
			c-5.22-11.9-10.72-23.88-16.57-35.96c-7.77-16.02-16.15-32.21-25.06-48.54c-4.88-8.94-9.59-17.84-14.82-26.88
			c-1.46,3.53-3.02,6.73-4.51,10.16c-6.87,15.82-13.99,30.82-21.32,44.65c-65.14,122.73-143.35,168.52-143.35,168.52
			c21.34-69.6,38.06-135.24,51.05-197.48c7.06-33.86,13.09-66.77,17.87-98.52c8-53.13,12.9-103.33,15.01-150.74
			c2.34-52.47,1.16-101.38-2.9-147.15c-11.03-124.28-44-224.48-90.53-303.73c-30.52-51.98-66.79-94.98-106.51-129.85
			c-37.25-32.7-77.41-58.45-118.64-77.63c6.58,51.14,9.12,97.38,8.27,139.61c-1.98,98.47-22.51,174.85-54,238.95
			c-30.04,61.15-70.04,111.14-113.35,158.56c-53.42,58.5-111.85,113.14-162.93,179.89c-0.22,0.29-0.44,0.58-0.66,0.87
			c-31.24,40.95-59.7,86.46-82.49,140.28c-34.78,82.11-56.41,183.49-54.71,317.3c-52.92-79.39-71.85-190.26-77.77-279.54
			c-0.96-14.52-1.61-28.49-1.97-41.63c-1.75-63.69,2.48-108.58,2.48-108.58c-53.41,40.77-99.67,89.41-138.09,143.25
			c-8.44,11.83-16.56,23.88-24.23,36.19c-9.4,15.09-18.2,30.53-26.4,46.26c-52.3,100.33-79.9,212.52-78.1,323.78
			c0.44,27.04,2.66,54.01,6.63,80.76c5.17,34.87,13.43,69.31,24.87,102.95c2.24,6.58,4.5,13.15,6.98,19.66
			c-10.48-2.33-21.03-4.4-31.54-6.6c-33.33-6.97-66.74-13.56-100.07-20.11c-73.23-16.9-184.74-44.95-248.3-64.94
			c-15.51-4.88-28.27-9.29-36.8-12.93c0,0,0.16,5.71,0.91,16.12c0.74,10.35,2.07,25.39,4.39,44.21c0.51,4.17,1.09,8.55,1.71,13.09
			c2.78,20.42,6.67,44.4,12.05,71.06c12.32,60.98,32.54,135.86,65.7,213.92c19.34,45.53,43.13,92.11,72.27,137.62
			c34.23,53.48,75.94,105.42,126.69,152.43c48.95,45.34,106.28,86.06,173.55,119.02c19.74,9.67,40.39,18.61,61.87,26.87
			c111.54,42.87,246.91,65.7,411.47,57.23c-26.72-85.82-64.13-161.64-106.81-228.3c-38.63-60.33-81.56-113.15-125.1-158.63
			c-35.35-36.93-70.99-68.98-104.95-96.6c-37.56-30.54-72.96-55.58-103.48-75.3c-60.44-39.06-101.65-57.55-101.65-57.55
			c40.23,6.9,77.89,16.87,113.46,29.29c52.44,18.31,100.06,42.28,143.47,70.97c52.71,34.84,99.26,76.57,140.73,123.54
			c35.59,40.31,67.54,84.36,96.43,131.21c66.02,107.08,116.46,228.36,159.94,350.74c-0.04,0.15,6.57,0.15,6.53,0
			c56.76-144.02,131.94-297.72,227.89-421.42c85.51-110.24,187.54-196.55,307.84-230.84c48.91-13.94,100.8-19.4,155.87-14.24
			c0,0-60.12,14.87-143.85,60.09c-78.77,42.54-178.4,112.03-268.89,221.6c-63.7,77.14-122.84,174.03-166.82,295.45
			c192.34,9.91,344.83-22.91,465.92-80.6c25.96-12.37,50.47-25.87,73.62-40.35c19.1-11.95,37.35-24.51,54.63-37.69
			c136.44-104.09,217.64-243.39,265.91-369.8c15.32-40.13,27.34-78.95,36.74-114.94c31.31-119.83,33.79-208.18,33.79-208.18
			c-17.18,7.32-34.66,13.89-52.33,20.01c-39.48,13.69-80.12,24.6-121.35,34.23C2201.57,1599.37,2180.81,1603.94,2159.91,1608.24z"/>
		<path class="st10" d="M2004.83,2270.92l30.11,114.86l24.52-152.56C2042.18,2246.41,2023.93,2258.96,2004.83,2270.92z"/>
		<path class="st10" d="M2044.86,1814.73c-55.07-5.16-106.96,0.3-155.87,14.24l12.02,45.85
			C1984.74,1829.6,2044.86,1814.73,2044.86,1814.73z"/>
		<path class="st10" d="M1986.64,1643.23c57.66-12.59,115.8-23.16,173.27-34.99l16.33-101.57l-37.55,5.69l-141.76,97.16
			C1993.8,1620.93,1990.4,1632.2,1986.64,1643.23z"/>
		<path class="st11" d="M1901.01,1874.82l-12.02-45.85c-120.3,34.29-222.34,120.6-307.84,230.84l50.96,36.61
			C1722.61,1986.85,1822.24,1917.35,1901.01,1874.82z"/>
		<path class="st11" d="M1931.22,2311.27l103.73,74.51l-30.11-114.86C1981.69,2285.41,1957.18,2298.91,1931.22,2311.27z"/>
		<path class="st12" d="M949.64,1875.74l-51.8,32.59c33.96,27.62,69.6,59.68,104.95,96.6l87.58-5.65
			C1048.9,1952.32,1002.35,1910.58,949.64,1875.74z"/>
		<path class="st1" d="M1931.22,2311.27c-121.09,57.68-273.58,90.5-465.92,80.6c43.98-121.42,103.12-218.31,166.82-295.45
			l-50.96-36.61c-95.95,123.7-171.13,277.4-227.89,421.42c0.04,0.15-6.57,0.15-6.53,0c-43.48-122.38-93.91-243.66-159.94-350.74
			l-58.9,33.07c42.68,66.66,80.09,142.48,106.81,228.3c-164.57,8.48-299.93-14.36-411.47-57.23l-52.61,29.54l3.35,20.37
			c19.97,1.93,39.81,6.99,58.56,16.19c44.99,22.07,91.59,41.34,139.59,57.6c36.72,12.43,66.68,36.85,86.94,67.76l780.45-112.22
			c9.38-4.3,18.74-8.63,27.98-13.17c40.49-19.86,86-22.35,126.98-9.11l40.47-5.82L1931.22,2311.27z"/>
		<path class="st1" d="M732.92,2385.36c13.55-2,27.32-2.14,41.06-0.81l-3.35-20.37L732.92,2385.36z"/>
		<path class="st2" d="M770.63,2364.18l52.61-29.54c-21.48-8.25-42.13-17.2-61.87-26.87L770.63,2364.18z"/>
		<path class="st2" d="M1002.79,2004.94c43.54,45.48,86.48,98.31,125.1,158.63l58.9-33.07c-28.89-46.85-60.84-90.91-96.43-131.21
			L1002.79,2004.94z"/>
		<path class="st3" d="M761.36,2307.77c-67.27-32.95-124.6-73.68-173.55-119.02l-133.48,173.82l76.47,76.46
			c28.01,27.69,72.96,27.69,101,0l6.02-6.03c26.37-26.42,59.9-42.45,95.09-47.64l37.71-21.18L761.36,2307.77z"/>
		<path class="st13" d="M2390.06,2032.03l-27.95-283.55c-9.4,35.99-21.42,74.81-36.74,114.94L2390.06,2032.03z"/>
		<path class="st13" d="M2222.22,1594.55c41.22-9.63,81.86-20.55,121.35-34.23l-7.67-77.83l-148.06,22.42L2222.22,1594.55z"/>
		<path class="st14" d="M806.18,1804.78l-11.82,28.25c30.51,19.72,65.92,44.75,103.48,75.3l51.8-32.59
			C906.24,1847.05,858.62,1823.09,806.18,1804.78z"/>
		<path class="st15" d="M2034.94,2385.78l156.56,30.77l248.44-248.39c0.6-0.6,1-1.32,1.58-1.93l-51.46-134.19L2034.94,2385.78z"/>
		<path class="st16" d="M2222.22,1594.55l-34.39-89.64l-11.59,1.76l-16.33,101.57C2180.81,1603.94,2201.57,1599.37,2222.22,1594.55z
			"/>
		<path class="st16" d="M2059.46,2233.23l-24.52,152.56l355.12-353.75l-64.69-168.61C2277.1,1989.84,2195.9,2129.13,2059.46,2233.23
			z"/>
		<path class="st4" d="M388.86,1898.71l-94.83-36.33c0.8,1.63,1.54,3.29,2.34,4.92c29.03,58.42,21.64,127.41-17.15,178.21
			l181.9-9.18C431.99,1990.81,408.2,1944.24,388.86,1898.71z"/>
		<path class="st2" d="M1087.1,2618.74v8.84c0,3.77,0.55,7.39,1.11,11l226.69,60.24h226.59c39.32,0,71.39-31.75,71.39-71.24v-8.86
			c0-72.58,46.23-137.11,114.98-160.4c38.14-12.92,75.37-27.82,111.65-44.44l-780.45,112.22
			C1076.74,2553.06,1087.1,2584.92,1087.1,2618.74z"/>
		<path class="st2" d="M1994.48,2391.6c7.41,2.39,14.61,5.46,21.66,8.88l18.8-14.7L1994.48,2391.6z"/>
		<path class="st6" d="M461.13,2036.33l-181.9,9.18c-4.54,5.94-9.26,11.79-14.66,17.19l-4.68,4.68
			c-27.77,27.85-27.77,72.98,0,100.78l194.45,194.42l133.48-173.82C537.07,2141.75,495.36,2089.81,461.13,2036.33z"/>
		<path class="st17" d="M2138.68,1512.36l-126.28,19.12c-3.52,26.87-8.62,52.95-15.48,78.03L2138.68,1512.36z"/>
		<path class="st18" d="M2016.14,2400.48c16.73,8.1,32.38,18.84,46.04,32.52l6.03,6.04c9.62,9.62,21.42,15.68,33.82,18.61
			l-67.08-71.87L2016.14,2400.48z"/>
		<path class="st19" d="M2421.16,2046.14c-6.74-8.74-12.74-17.89-17.57-27.58l-13.53,13.48L2421.16,2046.14z"/>
		<path class="st17" d="M2389.7,1474.34l-53.81,8.15l7.67,77.83c17.67-6.12,35.15-12.69,52.33-20.01c0,0-2.48,88.35-33.79,208.18
			l27.95,283.55l13.53-13.48c-23.26-46.69-24.2-102.61-0.07-151.16c22.59-45.47,42.32-92.63,58.97-141.22
			c16.55-48.34,53.77-85,99.58-102.6l-105.74-91.48L2389.7,1474.34z"/>
		<path class="st20" d="M2102.02,2457.65c23.28,5.51,48.81-0.55,66.98-18.61l22.49-22.49l-156.56-30.77L2102.02,2457.65z"/>
		<path class="st21" d="M2441.52,2166.23c26.02-27.92,25.62-71.6-1.58-98.85l-4.73-4.74c-5.17-5.18-9.66-10.81-14.05-16.5
			l-31.1-14.1L2441.52,2166.23z"/>
		<path class="st7" d="M1158.34,2698.82h156.57l-226.69-60.24C1093.53,2672.66,1122.76,2698.82,1158.34,2698.82z"/>
		<path class="st22" d="M199.76,1580.22l-61.99,43.28c10.18,3.9,19.86,8.75,29.05,14.49l33.7-57.63L199.76,1580.22z"/>
		<path class="st9" d="M323.16,1684.78l-120.15-103.96l-2.5-0.47l-33.7,57.63c32.23,20.11,57.82,50.56,70.71,88.24
			c16.01,46.8,34.95,92.23,56.52,136.14l94.83,36.33C355.71,1820.64,335.48,1745.77,323.16,1684.78z"/>
		<path class="st23" d="M210.97,1582.31l-7.96-1.48l120.15,103.96c-5.39-26.66-9.27-50.64-12.05-71.06L210.97,1582.31z"/>
		<path class="st23" d="M692.71,1775.49c0,0,41.2,18.48,101.65,57.55l11.82-28.25C770.6,1792.36,732.94,1782.38,692.71,1775.49z"/>
		<path class="st24" d="M147.29,1570.45L0.24,1543.06c1.3,38.16,32.65,68.84,71.2,68.84h5.9c21.16,0,41.45,4.33,60.42,11.6
			l61.99-43.28L147.29,1570.45z"/>
		<path class="st25" d="M311.11,1613.72c-0.62-4.53-1.19-8.92-1.71-13.09l-98.43-18.33L311.11,1613.72z"/>
		<path class="st25" d="M720.81,1644.88c-2.48-6.51-4.74-13.08-6.98-19.66l-24.56,13.06
			C699.79,1640.47,710.33,1642.55,720.81,1644.88z"/>
		<path class="st10" d="M323.22,992.39l-38.33-146.2c-18.93,40.38-35.77,81.95-50.08,124.69c-23.09,68.97-87.8,115.37-160.53,115.37
			h-2.83c-22.33,0-42.07,10.44-55.18,26.49L0,1213.9L323.22,992.39z"/>
		<path class="st11" d="M716.53,722.83L338.52,451.34l-78.63,78.65c-27.77,27.84-27.77,72.94,0,100.79l1.76,1.76
			c51.27,51.25,64.22,129.42,32.26,194.49c-3.11,6.33-6.02,12.77-9.02,19.16l38.33,146.2L716.53,722.83z"/>
		<path class="st12" d="M1327.2,683.46l-610.68,39.38l447.75,140.51C1215.35,796.59,1273.78,741.96,1327.2,683.46z"/>
		<path class="st1" d="M1179.6,462.81c16.08-89.48,88.04-179.01,108.31-314.89l-244.12,35.11c-18.95,21.25-43.04,38.09-71.29,47.66
			c-50.02,16.96-98.54,37.18-145.3,60.41c-65.22,32.41-143.82,19.57-195.28-31.96l-0.11-0.11c-6.06-5.99-13-10.44-20.29-13.84
			l-77.36,11.13c-1.09,0.96-2.31,1.68-3.35,2.72L338.52,451.34l378.01,271.49L1179.6,462.81z"/>
		<path class="st1" d="M1486.28,146.34c41.23,19.18,81.39,44.92,118.64,77.63l58.65-32.93c-16.11-15.87-28.62-34.92-37.31-55.87
			h-229.28c23.56,50.51,39.38,113.56,31.7,187.78l65.87-36.99C1495.4,243.73,1492.87,197.48,1486.28,146.34z"/>
		<path class="st2" d="M1327.2,683.46c43.31-47.43,83.31-97.42,113.35-158.56l-23.2-141.31c-21.21,80.37-70.13,171.45-163.35,271.88
			c-71.06-73.41-85.12-133.04-74.41-192.66L716.53,722.83L1327.2,683.46z"/>
		<path class="st3" d="M1494.55,285.95l-65.87,36.99c-2.01,19.44-5.8,39.7-11.32,60.64l23.2,141.31
			C1472.04,460.8,1492.57,384.42,1494.55,285.95z"/>
		<path class="st3" d="M1711.42,353.82l77.08-100.38c-20.09-8.08-40.39-15.76-61.01-22.75c-24.64-8.35-46.21-22.19-63.93-39.65
			l-58.65,32.93C1644.63,258.84,1680.9,301.83,1711.42,353.82z"/>
		<path class="st16" d="M16.26,1112.74C6.25,1124.99,0,1140.42,0,1157.51v56.39L16.26,1112.74z"/>
		<path class="st4" d="M1804.86,804.69L2097,916.59l165.14-282.3l-460.18,23.25C1806.01,703.31,1807.19,752.22,1804.86,804.69z"/>
		<path class="st2" d="M1291.88,112.66l-203.58-54.1c-0.65,3.87-1.2,7.79-1.2,11.85v0c0,42.62-16.24,82.25-43.32,112.61
			l244.12-35.11C1289.61,136.49,1290.97,124.76,1291.88,112.66z"/>
		<path class="st2" d="M534.15,256.31l77.36-11.13C586.3,233.41,555.98,237.13,534.15,256.31z"/>
		<path class="st5" d="M1612.88,70.41c0-35.28-25.71-64.36-59.37-70.03c-75.82,57.61-135.51,103.15-162,123.38
			c1.88,3.7,3.67,7.56,5.46,11.41h229.28C1617.89,114.98,1612.88,93.19,1612.88,70.41z"/>
		<path class="st6" d="M1801.95,657.54l460.18-23.25l-326.48-326.43c-21.43-1.59-42.78-6.78-62.85-16.76
			c-27.48-13.66-55.65-26.14-84.3-37.67l-77.08,100.38C1757.95,433.06,1790.93,533.26,1801.95,657.54z"/>
		<polygon class="st17" points="413.32,1336.06 323.22,992.39 0,1213.9 		"/>
		<polygon class="st21" points="426.7,1386.99 413.32,1336.06 0,1213.9 0,1413.67 		"/>
		<path class="st26" d="M426.7,1386.99L0,1413.67v127c0,0.82,0.22,1.58,0.24,2.39l147.04,27.39L426.7,1386.99z"/>
		<path class="st3" d="M949.16,892.04c0,0-4.23,44.89-2.48,108.58l216.94-136.41c0.22-0.29,0.44-0.58,0.66-0.87L716.53,722.83
			l94.54,312.45C849.49,981.45,895.75,932.8,949.16,892.04z"/>
		<path class="st27" d="M1541.66-0.82h-181.88l10.94,88.55c7.2,11.11,14.22,23.07,20.79,36.02c26.49-20.23,86.17-65.76,162-123.38
			C1549.64-0.27,1545.72-0.82,1541.66-0.82z"/>
		<path class="st7" d="M1287.61-0.82h-129.12c-35.39,0-64.51,25.73-70.19,59.38l203.58,54.1
			C1294.47,77.95,1293.61,40.39,1287.61-0.82z"/>
		<path class="st7" d="M1293.55-0.82c13.84,11.57,46.94,41.89,77.17,88.55l-10.94-88.55H1293.55z"/>
		<path class="st28" d="M2698.95,1147.16c-5.06-34.5-34.56-60.91-70.35-60.91h-2.99c-72.77,0-137.49-46.44-160.56-115.45
			c-16.57-49.55-36.33-97.63-59.07-143.98c-0.79-1.6-1.22-3.3-1.95-4.92l-196.35,137.09L2698.95,1147.16z"/>
		<path class="st29" d="M2097,916.59l110.68,42.4l196.35-137.09c-28.93-63.98-15.75-139.35,34.11-189.32l1.8-1.8
			c27.8-27.84,27.8-72.94,0-100.79l-44.12-44.12l-133.68,148.42L2097,916.59z"/>
		<path class="st8" d="M2221.63,311.65L2169,259.03c-27.84-27.76-73.11-27.76-100.8,0l-0.14,0.14
			c-35.62,35.65-84.23,52.27-132.41,48.69l326.48,326.43L2221.63,311.65z"/>
		<polygon class="st30" points="2395.82,485.87 2357.5,447.55 2262.14,634.29 		"/>
		<polygon class="st31" points="2357.5,447.55 2221.63,311.65 2262.14,634.29 		"/>
		<path class="st32" d="M1965.38,1185.43c48.12,126.91,60.54,242.94,47.02,346.05l126.28-19.12l37.55-5.69l11.59-1.76l148.06-22.42
			l53.81-8.15l-410.98-355.54L1965.38,1185.43z"/>
		<path class="st22" d="M1946.56,1139.47c6.79,15.47,13.07,30.79,18.82,45.95l13.34-66.62L1946.56,1139.47z"/>
		<polygon class="st22" points="1978.72,1118.8 2207.68,958.99 2097,916.59 		"/>
		<path class="st9" d="M2097,916.59l-292.14-111.9c-2.11,47.41-7.01,97.61-15.01,150.74l95.75,82.82c1.49-3.43,3.04-6.63,4.51-10.16
			c5.23,9.03,9.94,17.93,14.82,26.88l73.79,63.83L2097,916.59z"/>
		<polygon class="st33" points="2389.7,1474.34 2456.32,1532.08 2677.29,1337.97 1978.72,1118.8 		"/>
		<path class="st22" d="M2456.32,1532.08l105.74,91.48c19.02-7.3,39.36-11.66,60.57-11.66h5.96c39.27,0,71.4-32.13,71.4-71.4
			v-190.59v-4.82l-22.71-7.13L2456.32,1532.08z"/>
		<path class="st23" d="M1864.27,1082.9c7.34-13.82,14.45-28.82,21.32-44.65l-95.75-82.82c-4.78,31.75-10.8,64.66-17.87,98.52
			L1864.27,1082.9z"/>
		<path class="st23" d="M1904.92,1054.97c8.91,16.33,17.29,32.52,25.06,48.54l48.73,15.29L1904.92,1054.97z"/>
		<polygon class="st22" points="2700,1345.09 2700,1317.99 2677.29,1337.97 		"/>
		<path class="st24" d="M2207.68,958.99l-228.96,159.81l698.57,219.17l22.71-19.98v-66.09v-94.4c0-3.55-0.55-6.94-1.05-10.35
			L2207.68,958.99z"/>
		<line class="st34" x1="2389.7" y1="1474.34" x2="2456.32" y2="1532.08"/>
		<line class="st35" x1="2456.32" y1="1532.08" x2="2562.06" y2="1623.57"/>
		<path class="st17" d="M682.33,1441.52c-1.79-111.26,25.81-223.45,78.1-323.78l-347.12,218.32l13.38,50.93L682.33,1441.52z"/>
		<path class="st15" d="M305.01,1556.42c-0.74-10.41-0.91-16.12-0.91-16.12c8.53,3.63,21.28,8.05,36.8,12.93l348.06-30.96
			c-3.97-26.74-6.19-53.72-6.63-80.76l-255.63-54.53l-279.42,183.46L305.01,1556.42z"/>
		<path class="st36" d="M309.4,1600.63c-2.32-18.82-3.65-33.86-4.39-44.21l-157.73,14.03l52.47,9.77l0.76,0.14l2.5,0.47l7.96,1.48
			L309.4,1600.63z"/>
		<path class="st36" d="M340.9,1553.23c63.56,19.98,175.07,48.04,248.3,64.94c33.33,6.54,66.74,13.14,100.07,20.11l24.56-13.06
			c-11.43-33.64-19.7-68.08-24.87-102.95L340.9,1553.23z"/>
		<path class="st37" d="M811.07,1035.29l-94.54-312.45l-393.3,269.56l463.62,79.09C794.51,1059.16,802.62,1047.12,811.07,1035.29z"
			/>
		<path class="st15" d="M760.44,1117.74c8.2-15.73,17-31.17,26.4-46.26l-463.62-79.09l90.1,343.67L760.44,1117.74z"/>
		<path class="st25" d="M1929.99,1103.51c5.86,12.08,11.35,24.06,16.57,35.96l32.16-20.67L1929.99,1103.51z"/>
		<path class="st25" d="M1720.93,1251.42c0,0,78.2-45.79,143.35-168.52l-92.3-28.95
			C1758.99,1116.19,1742.27,1181.82,1720.93,1251.42z"/>
		<path class="st15" d="M1026.42,1321.79c-1.7-133.81,19.93-235.19,54.71-317.3l-132.48,37.76
			C954.56,1131.53,973.49,1242.41,1026.42,1321.79z"/>
		<path class="st11" d="M948.65,1042.26l132.48-37.76c22.79-53.82,51.25-99.33,82.49-140.28l-216.94,136.41
			C947.04,1013.76,947.69,1027.74,948.65,1042.26z"/>
	</g>
</g>
</svg>
